# xmcd
#
# Track frame offsets: 
#        150
#        14459
#        30624
#        43834
#        62592
#        80849
#        94518
#        109446
#        124861
#        141311
#        157300
#        173459
#        187570
#        204430
#
# Disc length: 2928 seconds
#
# Revision: 1
# Processed by: cddbd v1.5.2PL0 Copyright (c) Steve Scherf et al.
# Submitted via: ExactAudioCopyFreeDBPlugin 1.0
#
DISCID=bc0b6e0e
DTITLE=Heinzmann, Stefanie - Roots To Grow
DYEAR=2009
DGENRE=Pop
TTITLE0=Bag It Up
TTITLE1=No One (Can Ever Change My Mind)
TTITLE2=Bet That I'm Better
TTITLE3=How Does It Feel
TTITLE4=Unbreakable
TTITLE5=World On Fire
TTITLE6=Love Fever
TTITLE7=Roots To Grow [feat. Gentleman]
TTITLE8=There's A Reason
TTITLE9=No Substitute
TTITLE10=Stop
TTITLE11=How Things Change
TTITLE12=I Don't Know How To Hurt You
TTITLE13=Wasting My Time
EXTD=
EXTT0=
EXTT1=
EXTT2=
EXTT3=
EXTT4=
EXTT5=
EXTT6=
EXTT7=
EXTT8=
EXTT9=
EXTT10=
EXTT11=
EXTT12=
EXTT13=
PLAYORDER=
